<svg width="15" height="15" viewBox="0 0 15 15" fill="none" xmlns="http://www.w3.org/2000/svg">
<path d="M7.5 0C3.35788 0 0 3.35788 0 7.5C0 11.6421 3.35788 15 7.5 15C11.6421 15 15 11.6422 15 7.5C15 3.35785 11.6421 0 7.5 0ZM8.74999 12.3052C8.74999 12.5881 8.52062 12.8175 8.23771 12.8175H6.83224C6.54933 12.8175 6.31996 12.5881 6.31996 12.3052V6.60251C6.31996 6.3196 6.54929 6.09023 6.83224 6.09023H8.23771C8.52062 6.09023 8.74999 6.31957 8.74999 6.60251V12.3052ZM7.5 5.11957C6.79764 5.11957 6.22826 4.55018 6.22826 3.84783C6.22826 3.14547 6.79764 2.57609 7.5 2.57609C8.20236 2.57609 8.77174 3.14547 8.77174 3.84783C8.77174 4.55018 8.20236 5.11957 7.5 5.11957Z" fill="#B1907F"/>
</svg>
