<svg width="15" height="15" viewBox="0 0 15 15" fill="none" xmlns="http://www.w3.org/2000/svg">
<path d="M7.5 15C11.6421 15 15 11.6421 15 7.5C15 3.35786 11.6421 0 7.5 0C3.35786 0 0 3.35786 0 7.5C0 11.6421 3.35786 15 7.5 15Z" fill="#B1907F"/>
<path d="M10.1177 4.50879H4.88232C4.26269 4.50879 3.76025 5.01123 3.76025 5.63086V9.37061C3.76025 9.99023 4.26269 10.4927 4.88232 10.4927H10.1177C10.7373 10.4927 11.2397 9.99023 11.2397 9.37061V5.62939C11.2397 5.00977 10.7373 4.50879 10.1177 4.50879ZM9.96533 5.25586L7.76514 7.45459C7.62012 7.60107 7.38281 7.60254 7.23633 7.45605L7.23486 7.45459L5.03467 5.25586H9.96533V5.25586ZM10.4927 9.37061C10.4927 9.57715 10.3257 9.74414 10.1191 9.74414H4.88232C4.67578 9.74414 4.50879 9.57715 4.50879 9.37061V5.7832L6.70752 7.98193C7.14551 8.41992 7.85449 8.41992 8.29395 7.98193L10.4927 5.7832V9.37061V9.37061Z" fill="#424046"/>
</svg>
