<svg width="15" height="15" viewBox="0 0 15 15" fill="none" xmlns="http://www.w3.org/2000/svg">
<path d="M7.5 15C11.6421 15 15 11.6421 15 7.5C15 3.35786 11.6421 0 7.5 0C3.35786 0 0 3.35786 0 7.5C0 11.6421 3.35786 15 7.5 15Z" fill="#B1907F"/>
<path d="M10.5232 8.68555C10.1676 8.39229 9.84142 8.24972 9.52599 8.24972C9.06969 8.24972 8.74116 8.54761 8.44371 8.85278C8.4095 8.88791 8.36809 8.90428 8.31339 8.90428C8.06275 8.90431 7.6218 8.58216 7.00281 7.94683C6.27459 7.19942 5.99927 6.72405 6.1844 6.53398C6.68628 6.01908 6.84296 5.50291 6.07455 4.52215C5.79947 4.17077 5.53033 4 5.25176 4C4.87608 4 4.5905 4.30819 4.33853 4.58013C4.29497 4.62714 4.25382 4.67154 4.21348 4.71295C3.9287 5.00519 3.92884 5.64263 4.21389 6.41819C4.52664 7.26913 5.14415 8.19481 5.95268 9.02473C6.57796 9.66639 7.2583 10.185 7.9202 10.5331C8.49806 10.8371 9.05859 11 9.49851 11C9.49856 11 9.49861 11 9.49868 11C9.77398 11 9.99761 10.9384 10.1453 10.813C10.4453 10.5585 11.0037 10.0869 11 9.52687C10.9979 9.22648 10.8376 8.94496 10.5232 8.68555Z" fill="#424046"/>
</svg>
