<svg width="15" height="15" viewBox="0 0 15 15" fill="none" xmlns="http://www.w3.org/2000/svg">
<path d="M7.52192 6.73619C8.18879 6.73619 8.72939 6.1956 8.72939 5.52874C8.72939 4.86188 8.18879 4.32129 7.52192 4.32129C6.85506 4.32129 6.31445 4.86188 6.31445 5.52874C6.31445 6.1956 6.85506 6.73619 7.52192 6.73619Z" fill="#B1907F"/>
<path d="M7.49988 0C3.35786 0 0 3.35793 0 7.49992C0 11.6418 3.35786 15 7.49988 15C11.6419 15 15 11.6418 15 7.49992C15 3.35793 11.6419 0 7.49988 0ZM7.48432 3.43393C7.48962 3.43393 7.49482 3.43368 7.50002 3.43343C7.50522 3.43368 7.51038 3.43393 7.51573 3.43393C8.77945 3.45388 9.80746 4.49835 9.80746 5.76236C9.80746 7.30777 8.15624 8.87264 7.50002 9.43334C7.45617 9.39584 7.40757 9.35359 7.35557 9.30729C7.35467 9.30649 7.35387 9.30584 7.35312 9.30509C6.62691 8.65979 5.19264 7.20282 5.19264 5.76236C5.19259 4.49835 6.2207 3.45393 7.48432 3.43393ZM7.53258 11.6126C6.1494 11.6126 4.74908 11.2158 4.74908 10.4577C4.74908 9.92565 5.43859 9.57185 6.32756 9.40794C6.49951 9.5808 6.66226 9.7332 6.80506 9.8604C5.83675 9.96855 5.26784 10.2751 5.26784 10.4576C5.26784 10.6818 6.1276 11.0938 7.53258 11.0938C8.93755 11.0938 9.79746 10.6818 9.79746 10.4576C9.79746 10.2714 9.20455 9.9571 8.20109 9.85495C8.34514 9.7263 8.50919 9.5725 8.68244 9.39784C9.59811 9.55725 10.3162 9.9146 10.3162 10.4577C10.3162 11.2158 8.91585 11.6126 7.53258 11.6126Z" fill="#B1907F"/>
</svg>
