<svg  viewBox="0 0 40 40" fill="none" xmlns="http://www.w3.org/2000/svg">
<path d="M40 21.8546V15.643C40 15.0394 39.6793 14.4702 39.1637 14.1577C38.7766 13.923 38.3016 13.8487 37.8617 13.9532L38.209 13.4069C38.5577 12.859 38.5726 12.1691 38.2477 11.6061L35.1418 6.22664C34.8401 5.70414 34.2779 5.37148 33.6747 5.35867L33.6377 5.35836C33.1865 5.35836 32.7634 5.53 32.4453 5.83125L32.473 5.18531C32.5006 4.53632 32.1684 3.93156 31.606 3.60687L26.2266 0.500859C25.963 0.348672 25.6627 0.268281 25.3583 0.268281C25.0667 0.268281 24.7776 0.342422 24.5221 0.482812C24.12 0.703671 23.8245 1.07726 23.6945 1.50844L23.3948 0.933671C23.0943 0.357812 22.5042 0 21.8546 0H15.643C15.0398 0 14.4708 0.320312 14.1574 0.836874C13.9199 1.22898 13.8508 1.70016 13.9538 2.13883L13.4065 1.79086C13.1274 1.61336 12.8052 1.51961 12.4745 1.51961C12.1699 1.51961 11.8696 1.60016 11.606 1.75234L6.22656 4.85804C5.70406 5.15976 5.37148 5.72203 5.35875 6.32453C5.34867 6.78343 5.52437 7.22648 5.8332 7.55476L5.18531 7.52703C4.53852 7.4996 3.92844 7.83695 3.60695 8.39398L0.501016 13.7732C0.199219 14.2959 0.192344 14.9492 0.482656 15.4776C0.703359 15.8798 1.07711 16.1754 1.50859 16.3055L0.933672 16.6054C0.357734 16.9058 0 17.4958 0 18.1454V24.3569C0 24.9605 0.320703 25.5297 0.836406 25.8422C1.22344 26.0769 1.69797 26.1513 2.13828 26.0468L1.79086 26.5931C1.44227 27.1411 1.42734 27.831 1.75227 28.3938L4.8582 33.7734C5.15984 34.2957 5.72187 34.6282 6.32523 34.6412L6.36227 34.6415C6.81352 34.6415 7.23664 34.4698 7.55469 34.1686L7.52703 34.8139C7.49906 35.4629 7.83109 36.0679 8.39391 36.393L13.7734 39.499C14.2998 39.8028 14.9467 39.8089 15.478 39.5171C15.8802 39.2962 16.1756 38.9226 16.3056 38.4915L16.6055 39.0663C16.9059 39.6422 17.4961 40 18.1455 40H24.3572C24.9605 40 25.5295 39.6794 25.8427 39.1633C26.0802 38.7711 26.1494 38.2998 26.0463 37.8612L26.5937 38.2092C26.8727 38.3867 27.195 38.4804 27.5257 38.4804C27.8302 38.4804 28.1305 38.3999 28.3941 38.2477L33.7733 35.142C34.296 34.8404 34.6287 34.2781 34.6415 33.6754C34.6516 33.2167 34.4759 32.7736 34.167 32.4452L34.8149 32.4729C34.8396 32.474 34.8644 32.4745 34.889 32.4745C34.8891 32.4745 34.8891 32.4745 34.8891 32.4745C35.5074 32.4745 36.0838 32.1419 36.3934 31.606L39.4991 26.2269C39.8012 25.704 39.808 25.0507 39.5176 24.5223C39.2968 24.1201 38.923 23.8243 38.4917 23.6944L39.0666 23.3946C39.6423 23.0942 40 22.5041 40 21.8546ZM37.3914 21.3261H37.3913L34.4955 22.8365C33.7997 23.1994 33.4327 23.9879 33.6033 24.754C33.7738 25.5199 34.4403 26.0783 35.2245 26.1121L36.5209 26.1676L34.3983 29.8441L31.1352 29.7042C30.3439 29.6704 29.6402 30.1677 29.4038 30.919C29.1687 31.6675 29.467 32.4843 30.1289 32.9053L31.2239 33.6016L27.5474 35.7243L24.7917 33.9718C24.1302 33.5511 23.2663 33.6243 22.6848 34.1578C22.107 34.6883 21.9565 35.5448 22.3194 36.2408L22.9195 37.3913H18.6742L17.164 34.4957C16.7973 33.7924 16.0107 33.4333 15.2464 33.6033C14.4802 33.7739 13.9218 34.4407 13.8884 35.2245L13.8327 36.5211L10.1562 34.3984L10.2961 31.1356C10.3298 30.3514 9.83047 29.6394 9.08156 29.404C8.34375 29.1722 7.52563 29.4515 7.09492 30.129L6.39852 31.2238L4.27586 27.5472L6.02828 24.7915C6.44953 24.1294 6.37313 23.263 5.84211 22.6843C5.31758 22.1133 4.46445 21.9513 3.75937 22.319L2.60883 22.9191V18.6739L5.50484 17.1634C6.20047 16.8005 6.56727 16.012 6.39687 15.246C6.22633 14.4801 5.55984 13.9217 4.7757 13.888L3.4793 13.8324L5.60195 10.1559L8.865 10.2959C9.65664 10.3301 10.3601 9.83249 10.5964 9.08109C10.8316 8.33257 10.5333 7.5157 9.87133 7.09476L8.77625 6.39843L12.4527 4.27578L15.2084 6.0282C15.8697 6.44882 16.7338 6.37593 17.3153 5.84226C17.8932 5.31171 18.0437 4.45523 17.6808 3.75929L17.0809 2.60867H21.3261L22.8364 5.50429C23.2038 6.20898 23.9913 6.5664 24.754 6.39664C25.5202 6.22609 26.0786 5.55929 26.112 4.77547L26.1677 3.4789L29.8441 5.60164L29.7043 8.86445C29.6705 9.64859 30.17 10.3607 30.9188 10.596C31.6483 10.8254 32.4704 10.5553 32.9055 9.87116L33.6018 8.77617L35.7245 12.4527L33.972 15.2084C33.5508 15.8706 33.6272 16.7369 34.1581 17.3155C34.6845 17.8887 35.5387 18.0474 36.2409 17.6808L37.3915 17.0808V21.3261H37.3914Z" fill="#B1907F"/>
<path d="M20 7.00586C12.835 7.00586 7.00562 12.8352 7.00562 20.0001C7.00562 27.1651 12.8349 32.9944 20 32.9944C27.165 32.9944 32.9943 27.1651 32.9943 20.0001C32.9943 12.8352 27.165 7.00586 20 7.00586ZM20 30.3857C14.2734 30.3857 9.61436 25.7267 9.61436 20.0001C9.61436 14.2736 14.2733 9.61461 20 9.61461C25.7266 9.61461 30.3856 14.2736 30.3856 20.0001C30.3856 25.7267 25.7266 30.3857 20 30.3857Z" fill="#B1907F"/>
<path d="M20 16.1274C17.865 16.1274 16.1282 17.8643 16.1282 19.9992C16.1282 22.1342 17.865 23.871 20 23.871C22.1349 23.871 23.8718 22.1342 23.8718 19.9992C23.8718 17.8643 22.135 16.1274 20 16.1274ZM20 21.2623C19.3034 21.2623 18.7369 20.6956 18.7369 19.9992C18.7369 19.3028 19.3036 18.7362 20 18.7362C20.6964 18.7362 21.263 19.3028 21.263 19.9992C21.263 20.6956 20.6965 21.2623 20 21.2623Z" fill="#B1907F"/>
</svg>
