<svg width="263" height="512" viewBox="0 0 263 512" fill="none" xmlns="http://www.w3.org/2000/svg">
<path d="M211.191 212.426H145.829C141.317 212.426 137.659 216.083 137.659 220.596V264.17C137.659 268.683 141.317 272.34 145.829 272.34H211.191C215.703 272.34 219.361 268.683 219.361 264.17V220.596C219.362 216.083 215.704 212.426 211.191 212.426ZM203.021 256H154V228.766H203.021V256Z" fill="#A49B98" fill-opacity="0.1"/>
<path d="M113.149 212.426H47.7869C43.2749 212.426 39.6169 216.083 39.6169 220.596V264.17C39.6169 268.683 43.2749 272.34 47.7869 272.34H113.149C117.661 272.34 121.319 268.683 121.319 264.17V220.596C121.319 216.083 117.661 212.426 113.149 212.426ZM104.979 256H55.9579V228.766H104.979V256Z" fill="#A49B98" fill-opacity="0.1"/>
<path d="M113.149 386.723H47.7869C43.2749 386.723 39.6169 390.38 39.6169 394.893V460.255C39.6169 464.768 43.2749 468.425 47.7869 468.425H113.149C117.661 468.425 121.319 464.768 121.319 460.255V394.893C121.319 390.38 117.661 386.723 113.149 386.723ZM104.979 452.085H55.9579V403.064H104.979V452.085Z" fill="#A49B98" fill-opacity="0.1"/>
<path d="M113.149 288.681H47.7869C43.2749 288.681 39.6169 292.338 39.6169 296.851V362.213C39.6169 366.726 43.2749 370.383 47.7869 370.383H113.149C117.661 370.383 121.319 366.726 121.319 362.213V296.851C121.319 292.338 117.661 288.681 113.149 288.681ZM104.979 354.043H55.9579V305.022H104.979V354.043Z" fill="#A49B98" fill-opacity="0.1"/>
<path d="M15.106 212.426H-50.256C-54.768 212.426 -58.426 216.083 -58.426 220.596V264.17C-58.426 268.683 -54.768 272.34 -50.256 272.34H15.106C19.618 272.34 23.276 268.683 23.276 264.17V220.596C23.277 216.083 19.618 212.426 15.106 212.426ZM6.93597 256H-42.085V228.766H6.93597V256Z" fill="#A49B98" fill-opacity="0.1"/>
<path d="M15.106 386.723H-50.256C-54.768 386.723 -58.426 390.38 -58.426 394.893V460.255C-58.426 464.768 -54.768 468.425 -50.256 468.425H15.106C19.618 468.425 23.276 464.768 23.276 460.255V394.893C23.277 390.38 19.618 386.723 15.106 386.723ZM6.93597 452.085H-42.085V403.064H6.93597V452.085Z" fill="#A49B98" fill-opacity="0.1"/>
<path d="M15.106 288.681H-50.256C-54.768 288.681 -58.426 292.338 -58.426 296.851V362.213C-58.426 366.726 -54.768 370.383 -50.256 370.383H15.106C19.618 370.383 23.276 366.726 23.276 362.213V296.851C23.277 292.338 19.618 288.681 15.106 288.681ZM6.93597 354.043H-42.085V305.022H6.93597V354.043Z" fill="#A49B98" fill-opacity="0.1"/>
<path d="M211.191 288.681H145.829C141.317 288.681 137.659 292.338 137.659 296.851V329.532C137.659 334.045 141.317 337.702 145.829 337.702C150.341 337.702 153.999 334.045 153.999 329.532V305.021H203.02V452.085H153.999V362.213C153.999 357.7 150.341 354.043 145.829 354.043C141.317 354.043 137.659 357.7 137.659 362.213V460.256C137.659 464.769 141.317 468.426 145.829 468.426H211.191C215.703 468.426 219.361 464.769 219.361 460.256V296.851C219.362 292.338 215.704 288.681 211.191 288.681Z" fill="#A49B98" fill-opacity="0.1"/>
<path d="M222.085 0H-61.149C-83.675 0 -102 18.325 -102 40.851V471.149C-102 493.675 -83.675 512 -61.149 512H222.085C244.611 512 262.936 493.675 262.936 471.149V40.851C262.936 18.325 244.611 0 222.085 0ZM246.596 471.149C246.596 484.664 235.601 495.66 222.085 495.66H-61.149C-74.665 495.66 -85.66 484.664 -85.66 471.149V40.851C-85.66 27.336 -74.665 16.34 -61.149 16.34H222.085C235.601 16.34 246.596 27.336 246.596 40.851V471.149Z" fill="#A49B98" fill-opacity="0.1"/>
<path d="M211.191 43.5741H-50.2551C-54.7671 43.5741 -58.425 47.2311 -58.425 51.7441V155.233C-58.425 159.746 -54.7671 163.403 -50.2551 163.403H211.192C215.704 163.403 219.362 159.746 219.362 155.233V51.7451C219.362 47.2311 215.704 43.5741 211.191 43.5741ZM-42.085 147.064V59.9151H66.1899L-20.9591 147.064H-42.085ZM203.021 147.064H94.746L120.984 120.826C124.175 117.634 124.175 112.462 120.984 109.271C117.793 106.081 112.62 106.081 109.43 109.271L71.636 147.064H2.14996L89.299 59.9151H158.785L132.547 86.1531C129.356 89.3451 129.356 94.5171 132.547 97.7081C134.142 99.3031 136.233 100.1 138.324 100.1C140.415 100.1 142.506 99.3031 144.101 97.7081L181.895 59.9151H203.021V147.064Z" fill="#A49B98" fill-opacity="0.1"/>
</svg>
