<svg width="377" height="458" viewBox="0 0 377 458" fill="none" xmlns="http://www.w3.org/2000/svg">
<path d="M121.5 79.7947C143.535 79.7947 161.398 61.932 161.398 39.8973C161.398 17.8626 143.535 0 121.5 0C99.4657 0 81.603 17.8626 81.603 39.8973C81.603 61.932 99.4657 79.7947 121.5 79.7947Z" fill="#A49B98" fill-opacity="0.1"/>
<path d="M444.814 443.197L415.893 277.777C414.864 271.894 409.757 267.602 403.785 267.602H265.738C259.766 267.602 254.658 271.894 253.63 277.777L224.708 443.197C223.538 449.883 228.013 456.252 234.699 457.422C241.384 458.597 247.756 454.117 248.924 447.431L276.067 292.187H393.457L420.6 447.431C421.644 453.402 426.832 457.608 432.693 457.607C433.394 457.607 434.109 457.547 434.825 457.422C441.51 456.252 445.983 449.883 444.814 443.197Z" fill="#A49B98" fill-opacity="0.1"/>
<path d="M313.069 243.501H356.452C356.452 231.54 346.721 221.809 334.76 221.809C322.8 221.809 313.069 231.54 313.069 243.501Z" fill="#A49B98" fill-opacity="0.1"/>
<path d="M334.761 204.457C356.29 204.457 373.805 221.972 373.805 243.501H404.845C408.187 243.501 411.254 241.649 412.809 238.691L416.992 230.739C419.059 226.81 417.952 221.963 414.386 219.32L406.604 213.553C404.223 211.789 402.864 208.966 402.968 206.004L403.311 196.324C403.468 191.888 400.368 188 396.008 187.166L386.494 185.347C383.583 184.79 381.134 182.836 379.944 180.124L376.052 171.253C374.269 167.188 369.789 165.031 365.499 166.172L356.138 168.661C353.275 169.423 350.22 168.726 347.969 166.796L340.615 160.493C337.245 157.605 332.272 157.605 328.901 160.493L321.547 166.796C319.297 168.726 316.242 169.423 313.378 168.661L304.017 166.172C299.728 165.031 295.247 167.188 293.464 171.253L289.574 180.124C288.384 182.838 285.934 184.792 283.023 185.347L273.509 187.166C269.149 188 266.049 191.888 266.207 196.324L266.549 206.004C266.655 208.966 265.294 211.789 262.914 213.553L255.675 218.918H194.864C194.671 222.06 194.063 225.227 192.982 228.343C190.896 234.356 187.283 239.521 182.684 243.501C210.758 243.501 283.758 243.501 295.711 243.501C295.717 221.973 313.233 204.457 334.761 204.457Z" fill="#A49B98" fill-opacity="0.1"/>
<path d="M199.085 305.559C204.816 309.346 212.531 307.77 216.318 302.039L230.228 280.992C232.224 277.964 232.143 273.865 229.738 270.897C226.766 267.229 221.382 266.664 217.714 269.637L198.112 285.521C197.166 286.294 196.274 287.255 195.566 288.326C191.78 294.057 193.355 301.772 199.085 305.559Z" fill="#A49B98" fill-opacity="0.1"/>
<path d="M222.604 329.852C218.518 327.489 213.289 328.886 210.926 332.974L198.299 354.815C197.693 355.875 197.203 357.092 196.923 358.347C195.435 365.052 199.665 371.694 206.371 373.182C213.076 374.67 219.718 370.44 221.206 363.735L226.671 339.105C227.453 335.562 225.912 331.764 222.604 329.852Z" fill="#A49B98" fill-opacity="0.1"/>
<path d="M186.017 393.667C185.752 390.051 183.187 386.852 179.472 385.967C174.879 384.872 170.269 387.71 169.176 392.302L163.331 416.845C163.053 418.035 162.932 419.34 163.024 420.622C163.519 427.474 169.472 432.626 176.324 432.132C183.175 431.637 188.328 425.682 187.833 418.832L186.017 393.667Z" fill="#A49B98" fill-opacity="0.1"/>
<path d="M176.593 222.657C179.866 213.226 174.872 202.928 165.439 199.656L106.366 179.163L92.8174 126.676L118.309 164.938L131.909 169.655L142.722 129.862C146.625 115.498 138.143 100.689 123.779 96.7874L77.3979 84.1848C63.034 80.2818 48.2247 88.7631 44.3232 103.127L8.96656 233.254C6.47786 238.755 6.26673 245.253 8.96366 251.179L38.6762 316.454L1.12014 429.048C-2.67004 440.412 3.47001 452.697 14.8333 456.489C26.1749 460.275 38.4781 454.158 42.2741 442.776L82.5285 322.092C84.2624 316.893 83.9645 311.231 81.6942 306.243L59.8468 258.248C59.1267 256.667 59.3855 254.812 60.5106 253.489C61.6356 252.165 63.4244 251.612 65.1004 252.067C66.3339 252.403 67.3664 253.249 67.9362 254.392L99.063 316.837V435.919C99.063 447.898 108.775 457.61 120.754 457.61C132.733 457.61 142.445 447.898 142.445 435.919V311.731C142.445 308.373 141.666 305.06 140.168 302.055L111.541 244.626L113.288 238.198L79.6754 226.538C64.4786 221.266 56.6307 206.879 56.4355 197.965L58.836 139.672L73.7841 197.583C75.2982 203.446 79.6436 208.16 85.3629 210.144L153.593 233.812C163.014 237.08 173.319 232.092 176.593 222.657Z" fill="#A49B98" fill-opacity="0.1"/>
</svg>
