<svg width="266" height="449" viewBox="0 0 266 449" fill="none" xmlns="http://www.w3.org/2000/svg">
<path d="M207.204 295.423C206.099 295.268 205.386 294.979 204.995 294.756C205.274 294.245 205.941 293.373 207.3 292.37C212.959 288.193 221.823 295.297 221.912 295.371L228.964 286.842L236.083 278.367C232.854 275.656 228.086 272.69 222.536 270.8V266.685H200.401V271.005C198.297 271.881 196.204 273.046 194.153 274.561C185.147 281.208 181.005 291.062 183.341 300.278C185.637 309.328 193.603 315.868 204.132 317.343C213.471 318.652 218.857 320.021 220.146 321.416C220.178 321.579 220.239 322.043 220.128 322.946C220.014 323.877 219.722 324.941 217.689 325.767C213.428 327.5 205.305 326.511 197.531 320.265L183.665 337.518C188.838 341.674 194.574 344.717 200.404 346.56V351.81H222.539V347.429C223.727 347.104 224.896 346.732 226.026 346.274C235.09 342.589 240.948 335.064 242.101 325.63C245.139 300.74 219.517 297.149 207.204 295.423Z" fill="#A49B98" fill-opacity="0.1"/>
<path d="M210.929 230.495C167.502 230.495 132.175 265.824 132.175 309.249C132.175 352.673 167.502 388.002 210.929 388.002C254.355 388.002 289.683 352.673 289.683 309.249C289.683 265.824 254.353 230.495 210.929 230.495ZM210.929 365.867C179.709 365.867 154.31 340.468 154.31 309.249C154.31 278.029 179.709 252.63 210.929 252.63C242.148 252.63 267.547 278.029 267.547 309.249C267.547 340.468 242.148 365.867 210.929 365.867Z" fill="#A49B98" fill-opacity="0.1"/>
<path d="M534 155.765L141.954 0L66.311 190.387H0V428.11H338.845C352.918 440.652 371.448 448.293 391.737 448.293C435.627 448.293 471.334 412.586 471.334 368.695C471.334 356.187 468.425 344.348 463.262 333.805L534 155.765ZM154.354 28.7447L505.257 168.164L447.952 312.398C440.545 305.003 431.688 299.069 421.856 295.035V190.39H372.816C373.638 157.924 354.089 127.442 323.169 115.157C303.616 107.391 282.213 107.702 262.899 116.032C243.582 124.364 228.668 139.718 220.901 159.268C216.936 169.244 215.078 179.811 215.356 190.39H90.1299L154.354 28.7447ZM316.345 190.387C311.868 183.68 304.321 179.008 295.734 174.121C294.765 173.568 294.208 173.036 293.927 172.685C294.377 172.315 295.315 171.75 296.949 171.319C303.762 169.52 309.365 179.402 309.42 179.501L319.122 174.181L328.868 168.934C328.531 168.31 325.426 162.696 319.86 157.661C319.592 157.419 319.319 157.196 319.047 156.963L320.591 153.076L300.021 144.903L298.411 148.953C296.05 148.978 293.674 149.29 291.307 149.914C280.483 152.766 272.994 160.394 271.763 169.821C270.759 177.519 274.049 185.044 280.495 190.387H237.516C237.233 182.594 238.549 174.794 241.471 167.438C247.055 153.383 257.779 142.344 271.665 136.354C285.552 130.366 300.942 130.141 314.993 135.725C337.412 144.631 351.525 166.836 350.681 190.387H316.345ZM22.1351 212.522H399.721V289.498C397.094 289.235 394.432 289.097 391.737 289.097C347.848 289.097 312.141 324.804 312.141 368.695C312.141 382.159 315.513 394.845 321.439 405.975H22.1351V212.522ZM391.737 426.158C360.052 426.158 334.276 400.38 334.276 368.695C334.276 337.009 360.053 311.232 391.737 311.232C423.422 311.232 449.199 337.009 449.199 368.695C449.199 400.38 423.423 426.158 391.737 426.158Z" fill="#A49B98" fill-opacity="0.1"/>
</svg>
