<svg width="156" height="381" viewBox="0 0 156 381" fill="none" xmlns="http://www.w3.org/2000/svg">
<path d="M32.5 381C29.8934 381 27.4693 379.656 26.0854 377.441C21.3045 369.795 -91 189.424 -91 123.81C-91 55.541 -35.598 0 32.5 0C100.598 0 156 55.541 156 123.81C156 189.424 43.6955 369.795 38.9146 377.441C37.5307 379.656 35.1066 381 32.5 381ZM32.5 15.1793C-27.2491 15.1793 -75.8587 63.9109 -75.8587 123.81C-75.8587 148.802 -56.1372 199.018 -18.8267 269.03C1.66474 307.481 22.3584 342.226 32.5 358.925C42.6416 342.227 63.3345 307.481 83.8267 269.03C121.137 199.018 140.859 148.801 140.859 123.81C140.859 63.9109 92.2491 15.1793 32.5 15.1793ZM32.5 189.119C-3.42122 189.119 -32.6462 159.821 -32.6462 123.81C-32.6462 87.7985 -3.42122 58.5002 32.5 58.5002C68.4212 58.5002 97.6462 87.7977 97.6462 123.81C97.6462 159.822 68.4212 189.119 32.5 189.119ZM32.5 73.6795C4.92693 73.6795 -17.5049 96.1676 -17.5049 123.81C-17.5049 151.452 4.92693 173.94 32.5 173.94C60.0731 173.94 82.5049 151.452 82.5049 123.81C82.5049 96.1676 60.0731 73.6795 32.5 73.6795Z" fill="#A49B98" fill-opacity="0.1"/>
</svg>
