<svg viewBox="0 0 800 800" fill="none" xmlns="http://www.w3.org/2000/svg">
<path d="M336.589 292.637C311.838 292.637 291.711 312.765 291.711 337.515C291.711 362.264 311.839 382.393 336.589 382.393C361.338 382.393 381.467 362.264 381.467 337.515C381.467 312.765 361.338 292.637 336.589 292.637ZM336.589 359.954C324.214 359.954 314.149 349.891 314.149 337.515C314.149 325.14 324.213 315.075 336.589 315.075C348.964 315.075 359.028 325.139 359.028 337.515C359.027 349.89 348.964 359.954 336.589 359.954Z" fill="#A49B98" fill-opacity="0.1"/>
<path d="M670.943 310.565C673.692 306.897 673.938 301.926 671.549 298C669.181 294.095 664.683 291.986 660.117 292.771L625.662 298.515C624.315 288.395 622.453 278.387 620.096 268.626L641.571 197.831C642.895 193.444 641.425 188.687 637.846 185.815C634.267 182.954 629.307 182.551 625.313 184.806L594.919 201.983C590.207 193.019 585.034 184.29 579.436 175.91L575.409 101.95C575.151 97.3718 572.144 93.4117 567.801 91.9312C563.46 90.4613 558.657 91.7853 555.674 95.2747L532.954 121.843C525.537 115.123 517.718 108.716 509.561 102.702L480.435 34.4761C478.628 30.2569 474.421 27.3065 469.867 27.6655C465.278 27.7667 461.217 30.6501 459.612 34.9468L447.361 67.6628C438.016 63.8262 428.445 60.4709 418.763 57.6441L368.115 3.5535C364.974 0.19946 360.116 -0.901021 355.852 0.771395C351.577 2.4425 348.749 6.53808 348.704 11.1267L348.38 46.087C338.047 45.6163 329.419 45.7163 318.188 46.4683L251.992 12.9214C247.919 10.8677 242.961 11.4738 239.516 14.5031C236.071 17.5205 234.814 22.3458 236.341 26.6649L247.976 59.5834C238.371 62.6574 228.88 66.2362 219.646 70.2871L146.079 61.4241C141.58 60.885 137.103 63.1517 134.905 67.1684C132.705 71.1956 133.165 76.155 136.083 79.701L158.309 106.707C150.321 112.877 142.646 119.463 135.399 126.385L63.1447 143.237C58.6796 144.269 55.3019 147.927 54.6064 152.459C53.9109 156.992 56.0422 161.49 59.9918 163.824L90.0821 181.574C84.5732 190.236 79.5585 199.099 75.1159 208.052L13.1944 248.465C9.35782 250.967 7.42771 255.556 8.32571 260.055C9.22371 264.554 12.7684 268.054 17.2794 268.885L51.5666 275.269C49.413 285.153 47.7747 295.184 46.6637 305.213L2.2448 364.442C-0.504436 368.11 -0.750302 373.081 1.62816 377.007C4.00662 380.912 8.51767 382.987 13.0721 382.236L47.5157 376.502C48.8621 386.622 50.7238 396.641 53.0799 406.392L31.6067 477.164C30.2827 481.55 31.7527 486.309 35.3315 489.18C38.9104 492.041 43.8803 492.456 47.8642 490.19L78.2464 473.036C82.9586 481.978 88.131 490.717 93.7399 499.121L97.7671 573.047C98.0248 577.625 101.032 581.585 105.374 583.065C109.716 584.535 114.529 583.211 117.502 579.722L140.21 553.176C147.615 559.897 155.446 566.326 163.615 572.339L192.729 640.521C194.524 644.74 198.463 647.455 203.298 647.331C207.886 647.23 211.948 644.347 213.552 640.05L225.803 607.367C235.148 611.203 244.731 614.559 254.423 617.397L305.035 671.454C307.2 673.765 310.195 675 313.237 675C314.595 675 315.986 674.753 317.31 674.237C321.574 672.566 324.412 668.481 324.445 663.892L324.782 628.954C334.946 629.392 343.765 629.313 355.008 628.561L421.159 662.096C422.807 662.926 424.446 663.341 426.353 663.309C432.704 663.645 437.674 658.316 437.674 652.089C437.674 650.003 437.102 648.05 436.114 646.367L425.187 615.436C434.802 612.384 444.294 608.793 453.562 604.732L527.084 613.595C531.571 614.122 536.06 611.867 538.27 607.851C540.468 603.823 539.998 598.864 537.092 595.33L514.865 568.324C522.865 562.131 530.551 555.546 537.798 548.622L610.03 531.782C614.495 530.75 617.873 527.092 618.568 522.56C619.264 518.028 617.133 513.529 613.183 511.195L583.093 493.457C588.59 484.807 593.606 475.943 598.071 466.956L659.991 426.543C663.827 424.041 665.757 419.453 664.859 414.953C663.961 410.454 660.417 406.965 655.906 406.123L621.619 399.74C623.762 389.845 625.4 379.814 626.511 369.796L670.943 310.565ZM598.486 414.627C600.157 417.263 602.839 419.082 605.913 419.642L624.28 423.053L583.228 449.845C581.523 450.967 580.142 452.516 579.256 454.367C573.242 466.798 566.095 479.027 557.984 490.707C556.212 493.265 555.583 496.451 556.244 499.502C556.906 502.554 558.814 505.18 561.496 506.761L577.652 516.298L529.688 527.472C527.703 527.943 525.874 528.942 524.404 530.367C514.487 540.039 503.659 549.058 492.204 557.193C489.667 558.988 487.996 561.771 487.581 564.856C487.165 567.94 488.051 571.06 490.038 573.461L501.975 587.968L453.17 582.078C451.173 581.843 449.074 582.157 447.213 582.987C434.434 588.765 421.15 593.544 407.72 597.213C404.713 598.032 402.189 600.074 400.741 602.833C399.294 605.593 399.058 608.835 400.102 611.775L406.329 629.424L362.393 607.152C360.564 606.222 358.5 605.794 356.491 605.974C340.537 607.141 329.856 607.051 314.597 605.818C311.445 605.538 308.415 606.603 306.116 608.713C303.816 610.811 302.492 613.774 302.458 616.881L302.279 635.673L268.688 599.804C267.285 598.312 265.512 597.223 263.537 596.674C250.062 592.882 236.801 588.001 224.134 582.178C222.654 581.493 221.06 581.146 219.456 581.146C217.998 581.146 216.551 581.426 215.182 581.987C212.299 583.176 210.044 585.499 208.943 588.427L202.368 605.964L183.037 560.693C182.24 558.807 180.938 557.193 179.278 555.991C167.822 547.722 157.051 538.623 147.245 528.93C145.035 526.742 141.994 525.587 138.898 525.698C135.779 525.822 132.862 527.247 130.842 529.614L118.646 543.862L115.978 494.813C115.867 492.759 115.193 490.796 114.048 489.102C106.161 477.547 99.1266 465.284 93.1456 452.65C91.8216 449.834 89.3643 447.702 86.4034 446.76C83.4306 445.817 80.1988 446.153 77.4943 447.69L61.2146 456.88L75.4524 409.96C76.0467 407.997 76.0914 405.921 75.5865 403.935C72.1865 390.539 69.808 376.593 68.5064 362.468C68.2263 359.36 66.667 356.511 64.1978 354.603C61.7181 352.695 58.5652 351.899 55.4913 352.426L36.9908 355.5L66.4763 316.198C67.7109 314.56 68.4617 312.607 68.6642 310.577C70.0447 296.665 72.5349 282.764 76.0691 269.234C76.8658 266.216 76.361 263.019 74.6885 260.381C73.0174 257.755 70.3353 255.938 67.2718 255.367L48.9055 251.956L89.9572 225.163C91.6744 224.042 93.0431 222.482 93.9292 220.642C99.9089 208.277 107.056 196.048 115.191 184.302C116.975 181.743 117.592 178.558 116.93 175.517C116.257 172.465 114.361 169.839 111.679 168.258L95.5228 158.721L143.498 147.525C145.495 147.064 147.324 146.066 148.782 144.641C158.712 134.97 169.55 125.949 180.971 117.838C183.507 116.031 185.19 113.26 185.594 110.163C186.009 107.078 185.123 103.959 183.137 101.558L171.2 87.0507L220.027 92.941C222.081 93.1882 224.133 92.8621 225.996 92.0206C238.73 86.2763 252.015 81.4852 265.456 77.8169C268.463 76.9978 270.998 74.9559 272.445 72.1962C273.881 69.4364 274.116 66.1942 273.074 63.2543L266.835 45.6058L310.804 67.8771C312.621 68.7975 314.641 69.2011 316.695 69.0552C332.603 67.8995 343.128 67.9783 358.588 69.2116C361.662 69.4917 364.758 68.4267 367.059 66.3164C369.348 64.218 370.683 61.2558 370.705 58.1371L370.885 39.3329L404.499 75.236C405.902 76.7283 407.686 77.8169 409.66 78.3665C423.111 82.1479 436.362 87.0284 449.018 92.8516C451.856 94.1637 455.111 94.2321 457.982 93.0422C460.865 91.8523 463.12 89.5186 464.221 86.6024L470.796 69.0433L490.127 114.348C490.935 116.222 492.236 117.848 493.886 119.038C505.33 127.297 516.113 136.395 525.919 146.099C528.141 148.287 531.158 149.409 534.277 149.319C537.396 149.185 540.313 147.77 542.333 145.404L554.529 131.144L557.209 180.229C557.311 182.271 557.984 184.245 559.14 185.94C566.993 197.451 574.028 209.704 580.019 222.359C581.354 225.175 583.8 227.306 586.762 228.249C589.724 229.18 592.955 228.855 595.67 227.318L611.96 218.118L597.712 265.084C597.128 267.037 597.073 269.123 597.578 271.109C600.988 284.493 603.367 298.439 604.658 312.543C604.938 315.651 606.509 318.5 608.977 320.408C611.445 322.316 614.598 323.123 617.672 322.596L636.184 319.51L606.698 358.812C605.464 360.45 604.713 362.402 604.51 364.432C603.13 378.334 600.64 392.235 597.106 405.776C596.321 408.792 596.815 412.002 598.486 414.627Z" fill="#A49B98" fill-opacity="0.1"/>
<path d="M336.589 180.44C249.974 180.44 179.514 250.899 179.514 337.515C179.514 424.131 249.973 494.589 336.589 494.589C342.781 494.589 347.808 489.563 347.808 483.37C347.808 477.177 342.781 472.151 336.589 472.151C262.349 472.151 201.954 411.756 201.954 337.516C201.954 263.276 262.349 202.881 336.589 202.881C410.829 202.881 471.224 263.276 471.224 337.516C471.224 396.161 433.773 447.647 378.011 465.654C372.121 467.562 368.879 473.889 370.786 479.791C372.694 485.681 378.988 488.913 384.923 487.016C449.963 466.002 493.663 405.921 493.663 337.515C493.662 250.9 423.203 180.44 336.589 180.44Z" fill="#A49B98" fill-opacity="0.1"/>
</svg>
