<svg width="334" height="370" viewBox="0 0 334 370" fill="none" xmlns="http://www.w3.org/2000/svg">
<path d="M330.34 234.179L264.02 195.765C263.149 195.262 262.16 194.994 261.153 194.994H246.759C245.123 139.114 219.62 89.1169 180.103 54.8766V43.3922C180.103 19.4664 160.644 0 136.726 0C124.387 0 112.582 5.36038 104.4 14.4865C88.2978 10.1158 71.3714 7.76882 53.9044 7.76882C47.9104 7.76882 -168.178 8.6012 -168.178 8.6012C-176.939 8.6012 -184.067 15.7236 -184.067 24.485C-184.067 33.1291 -177.125 40.1699 -168.524 40.3573L-217.331 150.058H-222.111C-230.872 150.058 -238 157.186 -238 165.947C-238 174.708 -230.872 181.837 -222.111 181.837H-138.118C-138.543 186.183 -138.822 190.571 -138.952 194.996H-160.755C-163.298 194.996 -165.536 196.673 -166.247 199.115L-177.504 237.729C-178.008 239.458 -177.669 241.323 -176.587 242.763C-175.508 244.203 -173.811 245.051 -172.011 245.051H-107.034C-107.294 247.241 -107.118 249.782 -106.157 252.726C-102.562 263.797 -93.6604 264.279 -88.3429 264.568C-83.3043 264.841 -81.1876 265.093 -79.3827 268.631C-77.5764 272.176 -78.6175 274.036 -81.3592 278.272C-84.2525 282.743 -89.098 290.224 -82.2588 299.646C-75.4111 309.067 -66.7941 306.773 -61.6454 305.4C-56.7713 304.101 -54.6804 303.686 -51.8715 306.491C-49.0583 309.304 -49.473 311.398 -50.7716 316.279C-52.1418 321.426 -54.4344 330.042 -45.0222 336.881C-35.6058 343.716 -28.1173 338.876 -23.6437 335.983C-19.4074 333.244 -17.5482 332.203 -14.0113 334.002C-10.4659 335.809 -10.2141 337.927 -9.94241 342.967C-9.65637 348.284 -9.17583 357.184 1.89389 360.791C12.9622 364.381 18.5872 357.463 21.9481 353.328C25.1303 349.414 26.5748 347.848 30.4964 348.471C34.4251 349.095 35.319 351.03 37.1368 355.738C39.0547 360.707 42.2655 369.022 53.9044 369.022C65.5448 369.022 68.7541 360.707 70.6734 355.738C72.4912 351.03 73.3851 349.095 77.3124 348.471C81.2411 347.849 82.6857 349.414 85.8664 353.33C89.2245 357.465 94.8466 364.381 105.919 360.788C116.985 357.184 117.468 348.281 117.755 342.964C118.029 337.924 118.28 335.807 121.813 334.005C125.357 332.204 127.219 333.243 131.457 335.984C135.926 338.876 143.409 343.719 152.83 336.883C162.253 330.043 159.959 321.424 158.588 316.273C157.289 311.394 156.874 309.301 159.676 306.495C162.488 303.689 164.58 304.104 169.458 305.403C174.607 306.773 183.228 309.068 190.068 299.645C196.904 290.225 192.063 282.744 189.169 278.273C186.428 274.037 185.387 272.175 187.187 268.635C188.992 265.095 191.109 264.844 196.149 264.571C201.468 264.282 210.369 263.8 213.976 252.726C214.93 249.784 215.103 247.242 214.84 245.054H327.814C327.823 245.053 327.833 245.053 327.843 245.054C331.002 245.054 333.563 242.493 333.563 239.333C333.566 237.064 332.249 235.106 330.34 234.179ZM136.726 11.4416C154.336 11.4416 168.662 25.775 168.662 43.3922V45.7033C153.043 34.1102 135.619 24.8225 116.895 18.3366C122.465 13.8987 129.369 11.4416 136.726 11.4416ZM-172.626 24.485C-172.626 22.0322 -170.631 20.037 -168.178 20.037H-13.7911C-20.6903 22.63 -27.4065 25.5962 -33.9053 28.9329H-159.617C-159.618 28.9329 -159.621 28.9329 -159.622 28.9329H-168.178C-170.631 28.9329 -172.626 26.9377 -172.626 24.485ZM-132.281 150.056H-149.96L-101.162 40.3744H-53.3045C-91.4035 65.9306 -119.924 104.695 -132.281 150.056ZM-183.657 102.516H-141.333L-150.452 123.011H-192.776L-183.657 102.516ZM-169.446 70.5744H-127.123L-136.243 91.0749H-178.567L-169.446 70.5744ZM-113.685 40.3744L-122.031 59.1343H-164.355L-156.008 40.3744H-113.685ZM-197.866 134.453H-155.541L-162.483 150.056H-204.808L-197.866 134.453ZM-222.111 170.394C-224.563 170.394 -226.558 168.398 -226.558 165.946C-226.558 163.493 -224.563 161.498 -222.111 161.498H-135.033C-135.642 164.438 -136.18 167.406 -136.653 170.394H-222.111ZM53.9044 19.2104C152.074 19.2104 232.291 97.5465 235.32 194.994H184.733C181.741 134.36 131.475 85.9491 70.1128 85.9491C8.74884 85.9491 -41.5154 134.36 -44.5074 194.994H-127.513C-124.482 97.5465 -44.2671 19.2104 53.9044 19.2104ZM82.1322 194.994C79.4706 181.844 67.8274 171.912 53.9044 171.912C39.9814 171.912 28.3382 181.844 25.6766 194.994H-33.0558C-30.0767 140.671 15.0588 97.3906 70.1114 97.3906C125.165 97.3906 170.299 140.671 173.279 194.994H82.1322ZM70.2959 194.994H37.5115C39.8813 188.224 46.3344 183.354 53.903 183.354C61.4716 183.354 67.926 188.224 70.2959 194.994ZM203.095 249.184C202 252.548 201.036 252.841 195.53 253.14C190.088 253.435 181.865 253.881 176.991 263.438C172.132 272.996 176.604 279.909 179.563 284.483C182.555 289.107 182.884 290.058 180.807 292.918C178.732 295.777 177.725 295.757 172.4 294.341C167.134 292.941 159.175 290.82 151.585 298.4C144.011 305.985 146.129 313.945 147.531 319.211C148.948 324.537 148.967 325.543 146.108 327.618C143.246 329.696 142.296 329.366 137.671 326.374C133.097 323.414 126.185 318.939 116.62 323.805C107.07 328.676 106.624 336.898 106.33 342.339C106.032 347.845 105.738 348.809 102.379 349.903C99.0213 350.993 98.2176 350.385 94.7465 346.112C91.3098 341.878 86.1167 335.48 75.5175 337.166C64.9255 338.848 61.9593 346.529 59.997 351.612C58.0133 356.751 57.437 357.575 53.903 357.575C50.369 357.575 49.7926 356.75 47.8089 351.612C45.8467 346.529 42.8804 338.848 32.2884 337.166C21.6964 335.482 16.5048 341.877 13.0666 346.109C9.58977 350.388 8.78886 350.993 5.43076 349.906C2.06979 348.81 1.77805 347.848 1.48056 342.346C1.18738 336.903 0.744019 328.676 -8.82114 323.802C-18.3691 318.942 -25.2841 323.413 -29.8593 326.371C-34.4917 329.366 -35.4428 329.694 -38.3018 327.618C-41.1536 325.545 -41.1335 324.54 -39.7177 319.217C-38.3161 313.947 -36.1965 305.983 -43.7866 298.393C-51.3709 290.819 -59.3271 292.937 -64.5916 294.339C-69.9191 295.757 -70.926 295.775 -73.004 292.916C-75.0793 290.057 -74.7503 289.105 -71.7569 284.483C-68.795 279.908 -64.317 272.992 -69.1911 263.428C-74.0624 253.877 -82.2831 253.432 -87.7236 253.136C-93.2227 252.839 -94.1852 252.545 -95.2793 249.176C-95.9358 247.168 -95.8471 246.065 -95.1792 245.045H202.982C203.656 246.071 203.747 247.174 203.095 249.184ZM-164.385 233.608L-156.463 206.436H259.617L306.527 233.608H-164.385Z" fill="#A49B98" fill-opacity="0.1"/>
<path d="M41.8786 122.473C42.2976 120.767 41.9086 118.962 40.8245 117.579C39.7405 116.196 38.08 115.388 36.3223 115.388H-2.76926C-5.19916 115.388 -7.36305 116.923 -8.16682 119.215L-27.2371 173.563C-27.8506 175.313 -27.5789 177.253 -26.5062 178.766C-25.4336 180.279 -23.6945 181.179 -21.8395 181.179H22.9743C25.6087 181.179 27.9013 179.381 28.5306 176.822L41.8786 122.473ZM18.4892 169.736H-13.7689L1.28535 126.83H29.0254L18.4892 169.736Z" fill="#A49B98" fill-opacity="0.1"/>
</svg>
